<svg class="jss7" width="184" height="41" fill="none" xmlns="http://www.w3.org/2000/svg"><path fill-rule="evenodd" clip-rule="evenodd" d="M10.55 0h27.9c.666 0 1.281.356 1.613.934l8.13 14.146c.42.733.296 1.66-.306 2.254L25.513 39.471a1.859 1.859 0 0 1-2.616 0L.553 17.364a1.865 1.865 0 0 1-.278-2.3L8.964.89A1.86 1.86 0 0 1 10.55 0Zm24.298 6.316v3.969H26.9v2.752c5.582.294 9.77 1.502 9.802 2.95v3.017c-.032 1.448-4.22 2.656-9.802 2.95v6.753h-5.277v-6.753c-5.582-.294-9.77-1.502-9.801-2.95v-3.018c.03-1.447 4.219-2.655 9.8-2.95v-2.751h-7.947v-3.97h21.173ZM24.262 19.88c5.957 0 10.936-1.022 12.154-2.386-1.033-1.156-4.77-2.067-9.516-2.317v2.882a50.256 50.256 0 0 1-5.277 0v-2.881c-4.745.25-8.483 1.16-9.516 2.316 1.218 1.364 6.198 2.386 12.155 2.386Z" fill="#009393"/><path d="m59.084 7.676 6.45-.727v6.265h5.599v5.448h-5.644v8.444c0 1.997.837 2.996 2.509 2.996 1.075 0 1.97-.181 2.687-.544l1.478 5.447a14.898 14.898 0 0 1-4.658.999c-2.598.121-4.658-.5-6.181-1.861-1.493-1.393-2.24-3.738-2.24-7.037v-8.444h-3.94v-5.448h3.94V7.676ZM95.272 26.425H79.013c.18 1.15.792 2.103 1.837 2.86 1.045.726 2.433 1.09 4.165 1.09 2.478 0 4.39-.59 5.733-1.77l3.628 4.085c-2.21 2.21-5.375 3.314-9.495 3.314-3.942 0-7.002-1.075-9.182-3.223-2.15-2.15-3.225-5.055-3.225-8.717 0-3.45 1.06-6.234 3.18-8.353 2.12-2.149 4.972-3.223 8.555-3.223 3.912 0 6.897 1.21 8.958 3.632 2.09 2.42 2.792 5.856 2.105 10.305Zm-16.259-4.767h10.481c-.06-1.15-.597-2.027-1.612-2.633-1.016-.635-2.24-.953-3.673-.953-1.284 0-2.389.318-3.315.953-.925.636-1.552 1.513-1.88 2.633ZM100.649 7.676l6.45-.727v6.265h5.598v5.448h-5.643v8.444c0 1.997.836 2.996 2.508 2.996 1.075 0 1.971-.181 2.687-.544l1.478 5.447a14.893 14.893 0 0 1-4.658.999c-2.597.121-4.658-.5-6.181-1.861-1.493-1.393-2.239-3.738-2.239-7.037v-8.444h-3.942v-5.448h3.942V7.676ZM116.146 3.726h6.494v12.121c1.583-2.088 3.822-3.132 6.719-3.132 5.882 0 8.823 3.586 8.823 10.76v12.03h-6.449V23.52c0-1.544-.389-2.74-1.165-3.587-.746-.847-1.762-1.271-3.046-1.271-1.403 0-2.583.484-3.538 1.453-.926.968-1.389 2.315-1.389 4.04v11.35h-6.449V3.726ZM163.477 26.425h-16.258c.179 1.15.791 2.103 1.836 2.86 1.045.726 2.434 1.09 4.166 1.09 2.478 0 4.389-.59 5.733-1.77l3.628 4.085c-2.21 2.21-5.375 3.314-9.496 3.314-3.941 0-7.002-1.075-9.182-3.223-2.15-2.15-3.224-5.055-3.224-8.717 0-3.45 1.06-6.234 3.18-8.353 2.12-2.149 4.971-3.223 8.554-3.223 3.912 0 6.898 1.21 8.958 3.632 2.09 2.42 2.792 5.856 2.105 10.305Zm-16.258-4.767h10.48c-.059-1.15-.597-2.027-1.612-2.633-1.015-.635-2.239-.953-3.673-.953-1.284 0-2.388.318-3.314.953-.926.636-1.553 1.513-1.881 2.633ZM166.152 13.123h6.002l.493 2.452c1.403-1.998 3.374-2.996 5.912-2.996 2.09 0 3.896.68 5.419 2.043l-2.687 5.175c-1.045-.757-2.225-1.135-3.538-1.135-1.464 0-2.688.47-3.673 1.407-.985.908-1.478 2.164-1.478 3.768v11.668h-6.45V13.123Z" fill="#009393"/></svg>